<svg width="163" height="26" viewBox="0 0 163 26" fill="none" xmlns="http://www.w3.org/2000/svg">
<path d="M32.9475 25.7973C30.9995 25.7973 29.4793 25.2568 28.3984 24.1871C27.3174 23.1174 26.7769 21.6085 26.7769 19.6492V12.0148H23.8154V8.28766H24.1307C24.9752 8.28766 25.6283 8.06245 26.09 7.6233C26.5404 7.17289 26.7769 6.53106 26.7769 5.68654V4.34657H30.9769V8.28766H34.9518V12.0148H30.9769V19.4353C30.9769 20.0096 31.0783 20.4938 31.281 20.8991C31.4837 21.3045 31.7989 21.6085 32.2381 21.8225C32.6772 22.0364 33.229 22.1378 33.9046 22.1378C34.051 22.1378 34.2312 22.1378 34.4338 22.104C34.6365 22.0814 34.828 22.0589 35.0194 22.0364V25.6059C34.7266 25.6509 34.3775 25.696 34.006 25.7298C33.6231 25.7748 33.274 25.7973 32.9588 25.7973H32.9475Z" fill="#0F1111"/>
<path d="M36.5732 25.6059V1.52028H40.7733V25.6059H36.5732Z" fill="#0F1111"/>
<path d="M48.2839 25.9888C47.079 25.9888 46.0206 25.7861 45.1197 25.3807C44.2189 24.9753 43.5208 24.4011 43.0366 23.6466C42.5524 22.8922 42.3047 22.0139 42.3047 21.023C42.3047 20.0321 42.5186 19.2101 42.9578 18.4557C43.3969 17.7012 44.05 17.0706 44.9508 16.5639C45.8404 16.0572 46.9664 15.6969 48.3289 15.483L53.959 14.5596V17.7463L49.1171 18.602C48.2951 18.7484 47.6758 19.0074 47.2705 19.379C46.8651 19.7506 46.6624 20.246 46.6624 20.8541C46.6624 21.4621 46.8876 21.9238 47.3493 22.2729C47.7997 22.6219 48.374 22.8021 49.0496 22.8021C49.9166 22.8021 50.6936 22.6219 51.3579 22.2504C52.0223 21.8788 52.5403 21.3608 52.9006 20.7077C53.2609 20.0546 53.4411 19.334 53.4411 18.5795V14.0867C53.4411 13.3435 53.1596 12.7242 52.5853 12.2287C52.011 11.7333 51.2453 11.4856 50.2995 11.4856C49.4099 11.4856 48.6217 11.7333 47.9236 12.2175C47.2367 12.7017 46.73 13.3322 46.4147 14.0979L43.0141 12.4427C43.3519 11.5306 43.8924 10.7424 44.6243 10.0668C45.3562 9.39116 46.2233 8.87319 47.2142 8.49034C48.2163 8.10749 49.2973 7.91607 50.4571 7.91607C51.8759 7.91607 53.1258 8.17505 54.2068 8.69303C55.2878 9.211 56.1323 9.94291 56.7403 10.8775C57.3484 11.8121 57.6524 12.8818 57.6524 14.0867V25.6059H53.7113V22.6445L54.6009 22.6107C54.1505 23.3313 53.6212 23.9507 52.9907 24.4574C52.3601 24.9641 51.662 25.3469 50.885 25.6059C50.108 25.8649 49.241 25.9888 48.2951 25.9888H48.2839Z" fill="#0F1111"/>
<path d="M66.4802 25.9888C64.6336 25.9888 63.0233 25.5496 61.6609 24.6713C60.2871 23.793 59.3412 22.5994 58.812 21.0906L61.9649 19.5929C62.4153 20.5726 63.0346 21.3383 63.8228 21.89C64.6223 22.4418 65.5006 22.712 66.4802 22.712C67.2234 22.712 67.8202 22.5431 68.2594 22.2053C68.7098 21.8675 68.9237 21.4171 68.9237 20.8653C68.9237 20.5275 68.8336 20.246 68.6535 20.0208C68.4733 19.7956 68.2368 19.6042 67.9328 19.4466C67.64 19.2889 67.291 19.1538 66.9194 19.0524L64.0818 18.253C62.6405 17.8476 61.537 17.2058 60.7826 16.3275C60.0281 15.4492 59.6565 14.4132 59.6565 13.2196C59.6565 12.1612 59.9268 11.2266 60.4673 10.4384C61.0078 9.65015 61.7622 9.01957 62.7306 8.58042C63.699 8.13001 64.8025 7.91607 66.0524 7.91607C67.6851 7.91607 69.1264 8.31018 70.3763 9.09839C71.6262 9.88661 72.5157 10.9901 73.045 12.4089L69.8583 13.9065C69.5656 13.1183 69.0588 12.499 68.3607 12.0486C67.6626 11.5982 66.8743 11.3617 66.0073 11.3617C65.3092 11.3617 64.7574 11.5193 64.3521 11.8234C63.9467 12.1274 63.744 12.5553 63.744 13.0845C63.744 13.3773 63.8341 13.6475 64.003 13.884C64.1719 14.1205 64.4084 14.3119 64.7236 14.4583C65.0277 14.6047 65.388 14.7398 65.7934 14.8749L68.5634 15.6969C69.9822 16.1248 71.0857 16.7554 71.8626 17.6111C72.6396 18.4557 73.0224 19.5029 73.0224 20.7302C73.0224 21.7662 72.7409 22.6895 72.2005 23.4777C71.6487 24.2772 70.883 24.8965 69.9146 25.3357C68.935 25.7861 67.7977 26 66.4802 26V25.9888Z" fill="#0F1111"/>
<path d="M90.2282 25.9889C88.5279 25.9889 86.9627 25.6849 85.5214 25.0656C84.0801 24.4463 82.8302 23.5905 81.7717 22.487C80.7133 21.3835 79.88 20.0886 79.2719 18.6022C78.6639 17.1159 78.3599 15.4944 78.3599 13.7378C78.3599 11.9812 78.6526 10.3485 79.2494 8.85085C79.8462 7.35324 80.6795 6.05831 81.7492 4.96606C82.8189 3.87382 84.0688 3.0293 85.4989 2.42125C86.9289 1.8132 88.5053 1.50917 90.2282 1.50917C91.951 1.50917 93.4486 1.79068 94.7998 2.36495C96.1511 2.93922 97.2884 3.69366 98.223 4.63952C99.1576 5.58538 99.8219 6.62132 100.227 7.74735L96.3425 9.59403C95.8921 8.38918 95.1489 7.39828 94.0792 6.62132C93.0207 5.84436 91.737 5.46152 90.2282 5.46152C88.7193 5.46152 87.4356 5.81058 86.2983 6.50872C85.1611 7.20685 84.2828 8.17523 83.6522 9.4026C83.0216 10.63 82.7176 12.0713 82.7176 13.7265C82.7176 15.3818 83.0329 16.8344 83.6522 18.073C84.2828 19.3116 85.1611 20.28 86.2983 20.9894C87.4356 21.6875 88.7418 22.0366 90.2282 22.0366C91.7145 22.0366 93.0207 21.6537 94.0792 20.8768C95.1376 20.0998 95.8921 19.1202 96.3425 17.9379L100.227 19.7508C99.8219 20.8768 99.1576 21.9127 98.223 22.8586C97.2884 23.8045 96.1511 24.5589 94.7998 25.1332C93.4486 25.7074 91.9285 25.9889 90.2282 25.9889Z" fill="#0F1111"/>
<path d="M101.748 25.6059V1.52028H105.948V25.6059H101.748Z" fill="#0F1111"/>
<path d="M116.645 25.9884C114.968 25.9884 113.436 25.5943 112.051 24.8061C110.666 24.0178 109.551 22.9481 108.729 21.5969C107.907 20.2344 107.491 18.6917 107.491 16.9464C107.491 15.2011 107.907 13.6584 108.729 12.2959C109.551 10.9334 110.655 9.86371 112.04 9.08676C113.414 8.29854 114.956 7.90443 116.657 7.90443C118.357 7.90443 119.922 8.29854 121.307 9.08676C122.681 9.87497 123.784 10.9334 124.606 12.2847C125.417 13.6359 125.834 15.1898 125.834 16.9464C125.834 18.703 125.417 20.2344 124.595 21.5969C123.773 22.9594 122.67 24.0291 121.285 24.8061C119.911 25.5943 118.368 25.9884 116.668 25.9884H116.645ZM116.645 22.1712C117.602 22.1712 118.436 21.946 119.145 21.5068C119.854 21.0564 120.417 20.4371 120.834 19.6489C121.251 18.8494 121.453 17.9598 121.453 16.9577C121.453 15.9555 121.251 15.0659 120.834 14.289C120.417 13.5008 119.854 12.8927 119.145 12.4423C118.436 11.9919 117.602 11.778 116.645 11.778C115.688 11.778 114.889 12.0032 114.168 12.4423C113.447 12.8927 112.884 13.5008 112.468 14.289C112.051 15.0772 111.848 15.9668 111.848 16.9577C111.848 17.9486 112.051 18.8494 112.468 19.6489C112.884 20.4483 113.447 21.0677 114.168 21.5068C114.889 21.9572 115.722 22.1712 116.645 22.1712Z" fill="#0F1111"/>
<path d="M133.535 25.9884C132.172 25.9884 131.013 25.6956 130.033 25.0988C129.053 24.502 128.299 23.68 127.77 22.6215C127.24 21.5631 126.97 20.3245 126.97 18.8944V8.29852H131.17V18.5453C131.17 19.266 131.317 19.8966 131.598 20.4371C131.88 20.9775 132.296 21.4054 132.837 21.7095C133.377 22.0135 133.985 22.1711 134.672 22.1711C135.359 22.1711 135.956 22.0135 136.485 21.7095C137.014 21.4054 137.431 20.9775 137.724 20.4258C138.017 19.874 138.174 19.221 138.174 18.4553V8.29852H142.34V25.6055H138.399V22.2049L138.715 22.813C138.309 23.8714 137.656 24.6709 136.744 25.2001C135.832 25.7294 134.762 25.9996 133.535 25.9996V25.9884Z" fill="#0F1111"/>
<path d="M152.7 25.9888C151.022 25.9888 149.525 25.5947 148.196 24.7952C146.867 23.9957 145.82 22.9147 145.066 21.5297C144.3 20.156 143.917 18.6246 143.917 16.9468C143.917 15.269 144.3 13.7264 145.077 12.3639C145.854 11.0014 146.901 9.92042 148.207 9.12094C149.525 8.31021 151.011 7.9161 152.666 7.9161C153.984 7.9161 155.155 8.17508 156.179 8.69305C157.204 9.21103 158.015 9.94294 158.612 10.8775L157.97 11.7333V1.52028H162.136V25.6059H158.195V22.2616L158.645 23.0836C158.049 24.0408 157.227 24.7614 156.168 25.2456C155.11 25.7298 153.95 25.9775 152.7 25.9775V25.9888ZM153.139 22.1716C154.074 22.1716 154.907 21.9464 155.639 21.5072C156.371 21.0568 156.945 20.4487 157.362 19.6605C157.778 18.8723 157.981 17.9715 157.981 16.9581C157.981 15.9447 157.778 15.0664 157.362 14.2894C156.945 13.5012 156.371 12.8931 155.639 12.4427C154.907 11.9923 154.074 11.7784 153.139 11.7784C152.205 11.7784 151.371 12.0036 150.628 12.4427C149.885 12.8931 149.311 13.5012 148.894 14.2894C148.477 15.0776 148.275 15.9672 148.275 16.9581C148.275 17.949 148.477 18.8836 148.894 19.6605C149.311 20.4487 149.885 21.0568 150.628 21.5072C151.371 21.9576 152.205 22.1716 153.139 22.1716Z" fill="#0F1111"/>
<path d="M13.4447 1.71661e-05L0 25.9887C6.22692 23.5227 11.249 23.1623 15.7643 23.3763L13.7037 18.8159C12.8029 18.7258 10.1905 18.7258 8.9519 19.0523L13.4447 9.06451C13.4447 9.06451 20.2009 23.7366 20.2121 23.7366C21.5183 23.9393 24.9977 25.1104 26.8895 25.9887L13.4447 1.71661e-05Z" fill="#0F1111"/>
</svg>